<svg width="399" height="75" viewBox="0 0 399 75" fill="none" xmlns="http://www.w3.org/2000/svg">
<mask id="path-1-inside-1_51_2315" fill="white">
<path d="M360.25 22.498C355.696 25.9188 352.75 31.3656 352.75 37.5C352.75 43.6342 355.696 49.0802 360.25 52.501L349 75H49L37.75 52.501C42.3041 49.0802 45.25 43.6342 45.25 37.5C45.25 31.3656 42.3043 25.9188 37.75 22.498L49 0H349L360.25 22.498ZM26.5 28.125C31.6777 28.125 35.875 32.3223 35.875 37.5C35.875 42.6777 31.6777 46.875 26.5 46.875C21.3223 46.875 17.125 42.6777 17.125 37.5C17.125 32.3223 21.3223 28.125 26.5 28.125ZM371.5 28.125C376.678 28.125 380.875 32.3223 380.875 37.5C380.875 42.6777 376.678 46.875 371.5 46.875C366.322 46.875 362.125 42.6777 362.125 37.5C362.125 32.3223 366.322 28.125 371.5 28.125Z"/>
</mask>
<path d="M360.25 22.498L361.601 24.2971L363.102 23.1701L362.262 21.4917L360.25 22.498ZM352.75 37.5H350.5H352.75ZM360.25 52.501L362.262 53.5072L363.102 51.8289L361.601 50.702L360.25 52.501ZM349 75V77.25H350.391L351.012 76.0063L349 75ZM49 75L46.9876 76.0063L47.6095 77.25H49V75ZM37.75 52.501L36.3987 50.702L34.8984 51.8289L35.7376 53.5072L37.75 52.501ZM45.25 37.5H47.5H45.25ZM37.75 22.498L35.7376 21.4917L34.8983 23.1701L36.3987 24.2971L37.75 22.498ZM49 0V-2.25H47.6095L46.9876 -1.0063L49 0ZM349 0L351.012 -1.0063L350.391 -2.25H349V0ZM380.875 37.5H383.125H380.875ZM362.125 37.5H359.875H362.125ZM360.25 22.498L358.899 20.699C353.803 24.5265 350.5 30.6281 350.5 37.5H352.75H355C355 32.103 357.588 27.3111 361.601 24.2971L360.25 22.498ZM352.75 37.5H350.5C350.5 44.3719 353.803 50.4726 358.899 54.3L360.25 52.501L361.601 50.702C357.589 47.6878 355 42.8966 355 37.5H352.75ZM360.25 52.501L358.238 51.4947L346.988 73.9937L349 75L351.012 76.0063L362.262 53.5072L360.25 52.501ZM349 75V72.75H49V75V77.25H349V75ZM49 75L51.0124 73.9937L39.7624 51.4947L37.75 52.501L35.7376 53.5072L46.9876 76.0063L49 75ZM37.75 52.501L39.1013 54.3C44.1967 50.4726 47.5 44.3719 47.5 37.5H45.25H43C43 42.8966 40.4114 47.6878 36.3987 50.702L37.75 52.501ZM45.25 37.5H47.5C47.5 30.6281 44.1971 24.5265 39.1013 20.699L37.75 22.498L36.3987 24.2971C40.4115 27.3111 43 32.103 43 37.5H45.25ZM37.75 22.498L39.7624 23.5043L51.0124 1.0063L49 0L46.9876 -1.0063L35.7376 21.4917L37.75 22.498ZM49 0V2.25H349V0V-2.25H49V0ZM349 0L346.988 1.0063L358.238 23.5043L360.25 22.498L362.262 21.4917L351.012 -1.0063L349 0ZM26.5 28.125V30.375C30.435 30.375 33.625 33.565 33.625 37.5H35.875H38.125C38.125 31.0797 32.9203 25.875 26.5 25.875V28.125ZM35.875 37.5H33.625C33.625 41.435 30.435 44.625 26.5 44.625V46.875V49.125C32.9203 49.125 38.125 43.9203 38.125 37.5H35.875ZM26.5 46.875V44.625C22.565 44.625 19.375 41.435 19.375 37.5H17.125H14.875C14.875 43.9203 20.0797 49.125 26.5 49.125V46.875ZM17.125 37.5H19.375C19.375 33.565 22.565 30.375 26.5 30.375V28.125V25.875C20.0797 25.875 14.875 31.0797 14.875 37.5H17.125ZM371.5 28.125V30.375C375.435 30.375 378.625 33.565 378.625 37.5H380.875H383.125C383.125 31.0797 377.92 25.875 371.5 25.875V28.125ZM380.875 37.5H378.625C378.625 41.435 375.435 44.625 371.5 44.625V46.875V49.125C377.92 49.125 383.125 43.9203 383.125 37.5H380.875ZM371.5 46.875V44.625C367.565 44.625 364.375 41.435 364.375 37.5H362.125H359.875C359.875 43.9203 365.08 49.125 371.5 49.125V46.875ZM362.125 37.5H364.375C364.375 33.565 367.565 30.375 371.5 30.375V28.125V25.875C365.08 25.875 359.875 31.0797 359.875 37.5H362.125Z" fill="url(#paint0_linear_51_2315)" mask="url(#path-1-inside-1_51_2315)"/>
<defs>
<linearGradient id="paint0_linear_51_2315" x1="17.125" y1="37.5" x2="380.875" y2="37.5" gradientUnits="userSpaceOnUse">
<stop stop-color="#8D6414"/>
<stop offset="0.471154" stop-color="#F9CC3E"/>
<stop offset="1" stop-color="#8D6414"/>
</linearGradient>
</defs>
</svg>
